<?xml version="1.0" standalone="no"?>
<!DOCTYPE svg PUBLIC "-//W3C//DTD SVG 20010904//EN"
 "http://www.w3.org/TR/2001/REC-SVG-20010904/DTD/svg10.dtd">
<svg version="1.0" xmlns="http://www.w3.org/2000/svg"
 width="700.000000pt" height="700.000000pt" viewBox="0 0 700.000000 700.000000"
 preserveAspectRatio="xMidYMid meet">
<metadata>
Created by potrace 1.11, written by Peter Selinger 2001-2013
</metadata>
<g transform="translate(0.000000,700.000000) scale(0.100000,-0.100000)"
fill="#000000" stroke="none">
<path d="M2386 5958 c3 -5 10 -6 15 -3 13 9 11 12 -6 12 -8 0 -12 -4 -9 -9z"/>
<path d="M2230 5876 c7 -7 13 -7 20 0 6 6 3 10 -10 10 -13 0 -16 -4 -10 -10z"/>
<path d="M1900 5726 c0 -2 8 -10 18 -17 15 -13 16 -12 3 4 -13 16 -21 21 -21
13z"/>
<path d="M5599 5713 c-13 -16 -12 -17 4 -4 16 13 21 21 13 21 -2 0 -10 -8 -17
-17z"/>
<path d="M5710 5718 c0 -4 4 -8 9 -8 6 0 12 4 15 8 3 5 -1 9 -9 9 -8 0 -15 -4
-15 -9z"/>
<path d="M5590 5416 c0 -2 8 -10 18 -17 15 -13 16 -12 3 4 -13 16 -21 21 -21
13z"/>
<path d="M2399 5393 c-13 -16 -12 -17 4 -4 9 7 17 15 17 17 0 8 -8 3 -21 -13z"/>
<path d="M5116 5398 c3 -5 10 -6 15 -3 13 9 11 12 -6 12 -8 0 -12 -4 -9 -9z"/>
<path d="M2555 5371 c-3 -5 -2 -12 3 -15 5 -3 9 1 9 9 0 17 -3 19 -12 6z"/>
<path d="M3836 5207 c3 -10 9 -15 12 -12 3 3 0 11 -7 18 -10 9 -11 8 -5 -6z"/>
<path d="M2390 5096 c0 -2 8 -10 18 -17 15 -13 16 -12 3 4 -13 16 -21 21 -21
13z"/>
<path d="M1545 5080 c-3 -6 1 -7 9 -4 18 7 21 14 7 14 -6 0 -13 -4 -16 -10z"/>
<path d="M3560 5080 c-9 -6 -10 -10 -3 -10 6 0 15 5 18 10 8 12 4 12 -15 0z"/>
<path d="M5590 4776 c0 -2 8 -10 18 -17 15 -13 16 -12 3 4 -13 16 -21 21 -21
13z"/>
<path d="M1999 4493 c-13 -16 -12 -17 4 -4 16 13 21 21 13 21 -2 0 -10 -8 -17
-17z"/>
<path d="M2513 4435 c0 -8 4 -12 9 -9 5 3 6 10 3 15 -9 13 -12 11 -12 -6z"/>
<path d="M3830 4286 c0 -2 7 -7 16 -10 8 -3 12 -2 9 4 -6 10 -25 14 -25 6z"/>
<path d="M5750 4286 c0 -2 7 -7 16 -10 8 -3 12 -2 9 4 -6 10 -25 14 -25 6z"/>
<path d="M5596 4127 c3 -10 9 -15 12 -12 3 3 0 11 -7 18 -10 9 -11 8 -5 -6z"/>
<path d="M2055 4120 c-3 -5 -1 -10 4 -10 6 0 11 5 11 10 0 6 -2 10 -4 10 -3 0
-8 -4 -11 -10z"/>
<path d="M2270 4119 c0 -5 5 -7 10 -4 6 3 10 8 10 11 0 2 -4 4 -10 4 -5 0 -10
-5 -10 -11z"/>
<path d="M2750 4102 c-6 -2 -10 -10 -10 -18 0 -8 -10 -14 -25 -14 -17 0 -25
-6 -25 -17 0 -10 -1 -202 -1 -428 -1 -284 -4 -401 -11 -380 -5 17 -13 39 -18
50 -19 46 -130 366 -134 388 -2 7 -8 24 -14 38 -34 83 -72 205 -67 216 2 8 1
12 -3 9 -7 -4 -48 93 -56 134 -2 12 -29 16 -147 18 -159 3 -202 -7 -213 -55
-4 -13 -11 -21 -15 -18 -5 3 -7 -5 -3 -17 3 -13 1 -19 -5 -15 -7 5 -9 -1 -5
-15 3 -12 1 -19 -5 -15 -5 3 -9 -4 -9 -16 1 -15 -4 -21 -14 -19 -12 3 -12 1
-3 -9 14 -14 6 -42 -10 -32 -6 3 -7 1 -3 -5 10 -16 -25 -123 -37 -115 -6 3 -7
2 -4 -4 7 -11 -33 -145 -46 -154 -5 -3 -8 -9 -7 -13 2 -7 -49 -165 -59 -181
-3 -5 -6 -16 -7 -23 -2 -8 -6 -21 -10 -30 -11 -25 -11 -24 -19 -59 -4 -18 -10
-33 -14 -33 -3 0 -6 84 -5 187 1 219 -6 259 -48 302 -60 62 -75 65 -275 66
-100 1 -180 -2 -177 -6 2 -4 -1 -11 -8 -16 -7 -4 -26 -23 -43 -41 -28 -31 -30
-38 -31 -121 0 -48 -4 -93 -9 -101 -5 -7 -4 -11 1 -8 11 7 12 -112 1 -129 -5
-7 -5 -13 0 -13 4 0 7 -55 7 -121 -1 -67 1 -118 5 -113 8 13 84 12 93 -1 5 -6
8 -5 8 3 0 7 5 10 10 7 6 -3 13 1 16 10 4 9 13 14 20 11 21 -8 25 23 27 254
l2 215 94 -1 c78 0 96 -3 106 -18 10 -13 13 -71 12 -241 -1 -123 1 -221 5
-219 4 2 9 0 13 -5 3 -5 18 -9 33 -7 15 1 33 -2 40 -7 8 -6 12 -6 12 1 0 5 9
8 20 5 14 -4 20 0 20 11 0 10 9 16 24 16 13 0 27 6 30 13 2 6 4 1 3 -13 -2
-23 2 -25 43 -26 25 -1 47 -3 50 -4 27 -10 43 -6 47 10 3 10 14 20 25 22 26 4
30 12 69 126 24 69 35 90 44 82 6 -5 15 -6 19 -2 13 12 256 10 256 -2 0 -8 3
-8 8 -1 10 15 52 16 52 2 0 -8 3 -8 9 1 10 17 22 1 39 -53 33 -103 65 -166 92
-180 15 -8 30 -12 33 -8 3 3 25 6 49 8 26 1 42 6 41 13 -2 7 10 12 27 12 17 0
30 -4 30 -8 0 -12 47 -32 55 -24 10 11 49 9 57 -3 5 -6 8 -5 8 3 0 7 5 10 10
7 6 -3 10 1 10 11 0 11 6 15 20 11 11 -3 23 0 27 6 5 7 8 213 8 460 1 396 -1
447 -15 448 -61 3 -112 3 -120 1z m-534 -180 c0 -4 5 -18 11 -32 29 -72 53
-153 47 -162 -4 -6 -3 -9 2 -5 5 3 21 -28 35 -69 l26 -75 -77 2 c-43 1 -81 0
-86 -2 -5 -3 -28 -2 -50 1 -40 5 -41 6 -31 30 5 14 11 31 13 38 1 8 6 21 10
30 4 9 8 19 8 22 1 3 19 58 41 122 34 101 47 127 51 100z"/>
<path d="M196 4087 c-10 -7 -21 -31 -25 -53 -4 -21 -7 -226 -6 -454 l0 -414
61 -1 c50 -1 66 3 90 21 l29 23 0 160 0 159 165 4 c188 4 210 10 293 92 60 58
76 110 72 236 -3 110 -21 157 -80 208 l-36 32 -272 0 c-209 0 -277 -3 -291
-13z m469 -162 c23 -22 25 -32 25 -108 0 -66 -4 -88 -16 -98 -20 -17 -323 -21
-325 -4 -4 28 -5 221 -1 228 2 4 68 7 148 7 141 0 146 -1 169 -25z"/>
<path d="M3512 4093 c-6 -2 -10 -9 -6 -14 3 -5 -7 -9 -23 -9 l-28 0 2 -441 c1
-243 4 -447 7 -455 3 -8 17 -12 41 -10 21 3 35 -1 35 -8 0 -7 3 -8 8 -1 4 6
16 11 27 11 11 0 19 5 18 12 -2 8 10 12 32 12 l35 0 2 233 3 232 78 -1 c116
-1 112 10 112 -253 0 -121 4 -223 8 -227 4 -5 35 -9 67 -10 45 -1 60 2 60 12
0 9 12 14 35 14 l35 0 -3 253 c-4 253 -8 280 -44 323 -37 44 -81 57 -198 59
-60 1 -120 -2 -132 -7 l-23 -8 0 145 0 145 -67 -1 c-38 0 -74 -3 -81 -6z"/>
<path d="M6570 4085 c0 -11 -11 -15 -40 -15 l-40 0 0 -377 c0 -348 2 -381 19
-419 20 -44 67 -85 116 -101 42 -13 188 -9 193 5 2 7 23 12 48 12 l44 0 -1 53
c-3 82 -8 87 -93 87 -54 0 -77 4 -86 15 -9 11 -13 53 -12 138 0 183 -2 172 29
174 14 0 30 8 35 17 5 10 19 14 38 11 17 -2 36 3 44 10 17 17 18 122 2 128 -6
2 -41 3 -78 2 -38 0 -68 2 -69 5 0 3 -1 64 -2 135 l-2 130 -72 3 c-60 2 -73 0
-73 -13z"/>
<path d="M949 4078 c-1 -7 -1 -16 0 -20 0 -5 -8 -8 -19 -8 -18 0 -20 -7 -20
-54 0 -83 3 -86 76 -86 50 0 64 3 64 15 0 8 9 15 20 15 19 0 21 5 18 73 l-3
72 -67 3 c-50 2 -68 -1 -69 -10z"/>
<path d="M5671 4083 c4 -24 -4 -32 -32 -31 -28 1 -53 -17 -44 -32 2 -3 5 -31
6 -61 l2 -54 39 2 c28 1 36 -1 31 -10 -5 -8 -2 -8 9 1 8 7 23 9 32 6 12 -5 19
0 23 15 4 17 13 21 45 21 l39 0 -3 73 -3 72 -73 3 c-40 2 -72 -1 -71 -5z"/>
<path d="M1100 3886 c0 -2 8 -10 18 -17 15 -13 16 -12 3 4 -13 16 -21 21 -21
13z"/>
<path d="M4889 3838 c12 -16 11 -18 -6 -18 -11 0 -28 -8 -39 -17 -11 -10 -26
-19 -34 -21 -8 -2 -27 -14 -41 -28 -24 -23 -25 -29 -24 -132 1 -59 -2 -115 -7
-124 -5 -10 -4 -19 2 -23 5 -3 10 -11 10 -16 0 -6 -5 -7 -12 -3 -7 5 -8 3 -3
-6 11 -18 14 -171 3 -192 -5 -10 -4 -19 2 -23 5 -3 10 -11 10 -16 0 -6 -4 -8
-10 -4 -5 3 -5 -6 1 -24 9 -26 15 -30 39 -27 16 2 34 0 41 -5 13 -7 49 6 59
22 3 4 22 9 42 11 29 1 35 6 33 20 -2 10 2 18 8 18 8 0 8 3 2 8 -12 8 -13 32
-2 50 5 6 5 12 0 12 -10 0 -10 91 1 108 4 7 4 12 -1 12 -10 0 -9 112 1 128 4
7 3 12 -1 12 -5 0 -9 9 -9 20 0 11 5 20 10 20 6 0 5 5 -2 12 -22 22 4 46 45
43 36 -2 38 -4 39 -36 1 -19 -4 -40 -10 -48 -8 -11 -8 -13 2 -7 8 5 12 0 12
-13 0 -12 -6 -21 -12 -21 -9 0 -9 -3 -3 -8 16 -10 17 -152 2 -152 -8 0 -9 -3
-1 -8 14 -10 15 -143 0 -161 -8 -11 -8 -13 0 -8 7 4 14 -1 17 -12 4 -15 14
-18 61 -17 31 1 56 -3 56 -8 0 -5 3 -6 8 -2 4 4 7 13 7 19 0 7 18 13 41 15
l41 3 -1 229 c-1 127 1 230 4 231 3 0 13 2 22 4 10 2 28 -5 39 -14 21 -17 21
-25 22 -240 0 -176 3 -224 14 -228 7 -3 10 -10 6 -16 -4 -6 -1 -7 7 -2 18 11
81 13 102 3 13 -6 15 -4 11 12 -5 18 0 20 36 20 l42 0 -1 247 c-1 196 -4 252
-16 275 -8 16 -12 34 -8 41 4 7 4 9 0 5 -5 -4 -13 -2 -20 3 -44 37 -60 49 -65
50 -3 0 -15 3 -26 6 -11 3 -133 6 -272 8 -200 1 -256 4 -270 16 -16 13 -17 12
-4 -3z"/>
<path d="M4324 3832 c5 -8 0 -12 -14 -12 -51 0 -169 -82 -194 -134 -25 -53
-27 -365 -2 -417 27 -58 107 -109 164 -104 12 1 22 -3 22 -8 0 -6 5 -6 13 0 6
5 44 7 82 6 90 -4 82 -4 140 0 28 2 56 -1 63 -6 9 -7 12 -4 12 12 0 18 6 21
38 21 l37 0 -2 53 c0 28 -2 57 -3 62 -1 6 -2 13 -1 17 0 3 -76 7 -169 8 -94 0
-177 3 -185 6 -15 6 -31 61 -21 71 3 4 73 7 156 7 105 1 153 5 162 14 6 6 21
12 33 12 26 0 45 18 45 43 0 11 4 15 12 11 7 -5 8 -3 3 6 -4 7 -9 51 -10 99
-2 47 -8 98 -13 112 -6 15 -9 30 -6 33 2 3 1 4 -2 2 -3 -2 -20 11 -37 29 -41
41 -68 48 -197 50 -58 1 -112 5 -119 10 -10 5 -12 4 -7 -3z m158 -190 c8 -6
14 -22 16 -36 l2 -26 -100 0 -100 0 0 39 0 39 85 -2 c46 -2 90 -8 97 -14z"/>
<path d="M957 3822 c-11 -2 -16 -9 -13 -17 3 -8 -3 -17 -15 -20 -18 -6 -19
-18 -19 -298 0 -163 4 -299 10 -307 12 -20 120 -23 127 -4 3 8 14 14 24 14 21
0 20 -23 19 390 0 138 -5 229 -11 235 -10 10 -86 14 -122 7z"/>
<path d="M3144 3819 c-61 -12 -153 -77 -188 -132 -19 -29 -21 -47 -21 -217 0
-160 2 -189 18 -211 9 -14 15 -29 12 -32 -3 -4 -2 -5 1 -2 4 2 20 -7 37 -21
16 -14 43 -28 58 -31 16 -3 29 -10 29 -15 0 -7 5 -7 13 -1 14 11 187 11 204 0
6 -4 14 -3 18 3 4 6 11 8 16 5 5 -4 12 1 15 9 4 10 18 16 35 16 16 0 30 6 30
13 4 42 -4 113 -14 119 -7 4 -65 8 -130 8 -90 0 -122 3 -133 15 -12 11 -14 43
-12 162 l3 148 103 0 c87 0 106 3 116 17 7 10 16 15 19 12 3 -3 15 -1 26 6 18
9 21 20 21 73 l0 62 -124 0 c-68 0 -136 -2 -152 -6z"/>
<path d="M5674 3818 c-3 -4 -2 -12 1 -18 6 -10 -13 -14 -48 -11 -9 1 -20 -4
-22 -11 -8 -21 -11 -607 -3 -602 4 2 9 0 12 -5 4 -5 26 -8 51 -7 25 1 45 -1
45 -6 0 -17 22 -7 27 13 4 14 13 20 32 19 14 -1 32 -2 39 -1 9 1 12 70 12 311
0 292 -1 310 -19 319 -21 12 -120 11 -127 -1z"/>
<path d="M6032 3815 c-15 -5 -54 -25 -88 -43 -65 -36 -101 -82 -104 -137 -4
-57 0 -120 9 -133 4 -8 80 -31 167 -53 257 -65 234 -56 234 -89 0 -24 -4 -30
-22 -31 -13 -1 -81 -2 -153 -4 -160 -3 -155 -2 -155 -20 0 -10 -10 -15 -34
-15 -39 0 -43 -7 -42 -75 l1 -50 195 0 c175 0 202 3 267 23 124 40 153 77 159
209 2 48 0 93 -7 104 -13 26 -30 32 -211 74 -177 41 -200 49 -192 69 4 11 33
14 145 14 116 0 142 2 152 15 7 9 28 17 47 19 l35 3 0 65 0 65 -188 0 c-103 0
-199 -4 -215 -10z"/>
<path d="M5590 2856 c0 -2 8 -10 18 -17 15 -13 16 -12 3 4 -13 16 -21 21 -21
13z"/>
<path d="M1145 2839 c-3 -4 2 -6 10 -5 21 3 28 13 10 13 -9 0 -18 -4 -20 -8z"/>
<path d="M3550 2846 c0 -2 7 -7 16 -10 8 -3 12 -2 9 4 -6 10 -25 14 -25 6z"/>
<path d="M1916 2633 c-6 -14 -5 -15 5 -6 7 7 10 15 7 18 -3 3 -9 -2 -12 -12z"/>
<path d="M1145 2519 c-3 -4 2 -6 10 -5 21 3 28 13 10 13 -9 0 -18 -4 -20 -8z"/>
<path d="M1759 2513 c-13 -16 -12 -17 4 -4 9 7 17 15 17 17 0 8 -8 3 -21 -13z"/>
<path d="M4300 2526 c0 -2 8 -10 18 -17 15 -13 16 -12 3 4 -13 16 -21 21 -21
13z"/>
<path d="M1750 2216 c0 -2 8 -10 18 -17 15 -13 16 -12 3 4 -13 16 -21 21 -21
13z"/>
<path d="M5590 2216 c0 -2 8 -10 18 -17 15 -13 16 -12 3 4 -13 16 -21 21 -21
13z"/>
<path d="M1145 2199 c-3 -4 2 -6 10 -5 21 3 28 13 10 13 -9 0 -18 -4 -20 -8z"/>
<path d="M3710 2201 c0 -6 4 -13 10 -16 6 -3 7 1 4 9 -7 18 -14 21 -14 7z"/>
<path d="M4190 2206 c0 -2 7 -7 16 -10 8 -3 12 -2 9 4 -6 10 -25 14 -25 6z"/>
<path d="M1919 2033 c-13 -16 -12 -17 4 -4 9 7 17 15 17 17 0 8 -8 3 -21 -13z"/>
<path d="M2220 2046 c0 -2 8 -10 18 -17 15 -13 16 -12 3 4 -13 16 -21 21 -21
13z"/>
<path d="M3595 2001 c-3 -5 -2 -12 3 -15 5 -3 9 1 9 9 0 17 -3 19 -12 6z"/>
<path d="M4026 1878 c3 -5 10 -6 15 -3 13 9 11 12 -6 12 -8 0 -12 -4 -9 -9z"/>
<path d="M3195 1611 c-3 -5 -2 -12 3 -15 5 -3 9 1 9 9 0 17 -3 19 -12 6z"/>
<path d="M5269 1563 c-13 -16 -12 -17 4 -4 16 13 21 21 13 21 -2 0 -10 -8 -17
-17z"/>
<path d="M1755 1560 c-3 -5 -1 -10 4 -10 6 0 11 5 11 10 0 6 -2 10 -4 10 -3 0
-8 -4 -11 -10z"/>
<path d="M3675 1560 c-3 -5 -1 -10 4 -10 6 0 11 5 11 10 0 6 -2 10 -4 10 -3 0
-8 -4 -11 -10z"/>
<path d="M2306 1398 c3 -5 10 -6 15 -3 13 9 11 12 -6 12 -8 0 -12 -4 -9 -9z"/>
<path d="M4226 1398 c3 -5 10 -6 15 -3 13 9 11 12 -6 12 -8 0 -12 -4 -9 -9z"/>
<path d="M1275 1371 c-3 -5 -2 -12 3 -15 5 -3 9 1 9 9 0 17 -3 19 -12 6z"/>
</g>
</svg>
